<svg xmlns="http://www.w3.org/2000/svg" width="400" height="365" viewBox="0 0 400 365" role="img"><title>PaperCanvas · 论文、笔记与 AI 对话的本地科研工作区</title>
<rect width="400" height="365" fill="#18140f"/><rect x="1" y="1" width="398" height="363" fill="none" stroke="#43392c" stroke-width="2"/>
<text x="24" y="36" fill="#e0a458" font-size="14" font-family="ui-monospace, SFMono-Regular, Menlo, Consolas, monospace">03 / BUILT FOR RESEARCH</text>
<text x="24" y="92" fill="#f4eee2" font-size="32" font-family="Arial, PingFang SC, Microsoft YaHei, Noto Sans CJK SC, sans-serif">PaperCanvas</text>
<text x="24" y="133" fill="#f4eee2" font-size="23" font-family="Arial, PingFang SC, Microsoft YaHei, Noto Sans CJK SC, sans-serif">让论文长成一张思考地图。</text>
<text x="24" y="173" fill="#b8ad98" font-size="18" font-family="Arial, PingFang SC, Microsoft YaHei, Noto Sans CJK SC, sans-serif">无限画布 · PDF 阅读与标注</text>
<text x="24" y="202" fill="#b8ad98" font-size="18" font-family="Arial, PingFang SC, Microsoft YaHei, Noto Sans CJK SC, sans-serif">按论文组织 AI 对话。</text>
<g transform="translate(231 230) scale(0.42)">
<path d="M35 36H155V105H272M155 105H63V190M155 105V210H277" fill="none" stroke="#e0a458" stroke-width="2"/>
<rect x="4" y="4" width="105" height="70" fill="#0b0907"/><rect x="0" y="0" width="105" height="70" fill="#211b14" stroke="#43392c" stroke-width="2"/>
<path d="M14 20h77" stroke="#e0a458" stroke-width="3"/>
<path d="M14 31h61" stroke="#b8ad98" stroke-width="2"/>
<path d="M14 42h77" stroke="#b8ad98" stroke-width="2"/>
<rect x="126" y="72" width="104" height="76" fill="#0b0907"/><rect x="122" y="68" width="104" height="76" fill="#211b14" stroke="#43392c" stroke-width="2"/>
<path d="M136 88h76" stroke="#e0a458" stroke-width="3"/>
<path d="M136 99h60" stroke="#b8ad98" stroke-width="2"/>
<path d="M136 110h76" stroke="#b8ad98" stroke-width="2"/>
<rect x="246" y="74" width="80" height="64" fill="#0b0907"/><rect x="242" y="70" width="80" height="64" fill="#211b14" stroke="#43392c" stroke-width="2"/>
<path d="M256 90h52" stroke="#e0a458" stroke-width="3"/>
<path d="M256 101h36" stroke="#b8ad98" stroke-width="2"/>
<path d="M256 112h52" stroke="#b8ad98" stroke-width="2"/>
<rect x="29" y="165" width="92" height="62" fill="#0b0907"/><rect x="25" y="161" width="92" height="62" fill="#211b14" stroke="#43392c" stroke-width="2"/>
<path d="M39 181h64" stroke="#e0a458" stroke-width="3"/>
<path d="M39 192h48" stroke="#b8ad98" stroke-width="2"/>
<path d="M39 203h64" stroke="#b8ad98" stroke-width="2"/>
<rect x="250" y="184" width="77" height="70" fill="#0b0907"/><rect x="246" y="180" width="77" height="70" fill="#211b14" stroke="#43392c" stroke-width="2"/>
<path d="M260 200h49" stroke="#e0a458" stroke-width="3"/>
<path d="M260 211h33" stroke="#b8ad98" stroke-width="2"/>
<path d="M260 222h49" stroke="#b8ad98" stroke-width="2"/>
</g>
<text x="24" y="256" fill="#e0a458" font-size="14" font-family="ui-monospace, SFMono-Regular, Menlo, Consolas, monospace">LOCAL-FIRST</text>
<text x="24" y="283" fill="#b8ad98" font-size="12" font-family="ui-monospace, SFMono-Regular, Menlo, Consolas, monospace">Windows / macOS / Linux</text>
<text x="24" y="338" fill="#f4eee2" font-size="16" font-family="ui-monospace, SFMono-Regular, Menlo, Consolas, monospace">EXPLORE PROJECT ↗</text>
</svg>
